<svg viewBox="0 0 320 195" fill="none" xmlns="http://www.w3.org/2000/svg">
      <path
        d="M9.57031 193.398C9.35156 192.487 9.35156 191.448 9.57031 190.281C9.82552 189.078 10.1719 187.875 10.6094 186.672C11.0469 185.469 11.5208 184.32 12.0312 183.227C12.5417 182.096 12.9609 181.167 13.2891 180.438C13.4714 180 13.7448 179.362 14.1094 178.523C14.5104 177.685 14.9479 176.737 15.4219 175.68C15.9323 174.622 16.4427 173.51 16.9531 172.344C17.5 171.177 18.0104 170.065 18.4844 169.008C18.9948 167.951 19.4323 167.021 19.7969 166.219C20.1979 165.38 20.4896 164.76 20.6719 164.359C20.0521 164.25 19.1589 164.305 17.9922 164.523C16.862 164.742 15.6042 165.034 14.2188 165.398C12.8333 165.727 11.4115 166.073 9.95312 166.438C8.49479 166.802 7.1276 167.076 5.85156 167.258C4.61198 167.404 3.53646 167.422 2.625 167.312C1.75 167.167 1.20312 166.784 0.984375 166.164C1.23958 165.69 2.16927 165.143 3.77344 164.523C5.3776 163.904 7.41927 163.266 9.89844 162.609C12.4141 161.917 15.2031 161.224 18.2656 160.531C21.3646 159.839 24.5182 159.182 27.7266 158.562C30.9349 157.943 34.0703 157.378 37.1328 156.867C40.1953 156.357 42.9297 155.938 45.3359 155.609C47.7422 155.281 49.6745 155.062 51.1328 154.953C52.6276 154.844 53.4115 154.88 53.4844 155.062C53.5938 155.354 53.612 155.719 53.5391 156.156C53.4661 156.557 53.2292 156.812 52.8281 156.922C51.0417 157.214 49.1094 157.542 47.0312 157.906C44.9531 158.234 42.8385 158.599 40.6875 159C38.5729 159.365 36.4948 159.747 34.4531 160.148C32.4115 160.513 30.5156 160.878 28.7656 161.242C27.6354 161.461 26.5417 162.117 25.4844 163.211C24.4271 164.305 23.4062 165.672 22.4219 167.312C21.4375 168.917 20.4896 170.721 19.5781 172.727C18.6667 174.695 17.7917 176.701 16.9531 178.742C16.151 180.784 15.4036 182.753 14.7109 184.648C14.0182 186.544 13.3802 188.221 12.7969 189.68C12.2135 191.102 11.7031 192.214 11.2656 193.016C10.8281 193.818 10.4635 194.146 10.1719 194C10.099 193.927 9.98958 193.818 9.84375 193.672C9.69792 193.526 9.60677 193.435 9.57031 193.398ZM34.4941 193.549C33.127 192.975 32.2246 192.182 31.7871 191.17C31.3496 190.131 31.1992 189.023 31.3359 187.848C31.4727 186.645 31.8008 185.441 32.3203 184.238C32.8672 183.035 33.4277 181.969 34.002 181.039C34.1934 180.711 34.5488 180.15 35.0684 179.357C35.5879 178.564 36.1348 177.73 36.709 176.855C37.3105 175.953 37.8711 175.119 38.3906 174.354C38.9375 173.561 39.3203 173.014 39.5391 172.713C39.8672 170.607 40.5234 168.939 41.5078 167.709C42.4922 166.451 43.5996 165.59 44.8301 165.125C46.0879 164.66 47.373 164.564 48.6855 164.838C49.998 165.084 51.1465 165.672 52.1309 166.602C53.1152 167.504 53.8262 168.721 54.2637 170.252C54.7012 171.783 54.6602 173.574 54.1406 175.625C53.6484 177.676 52.582 179.973 50.9414 182.516C49.3008 185.059 46.8945 187.807 43.7227 190.76C43.1758 191.279 42.5195 191.785 41.7539 192.277C41.0156 192.742 40.2227 193.125 39.375 193.426C38.5547 193.727 37.7207 193.904 36.873 193.959C36.0254 194.014 35.2324 193.877 34.4941 193.549ZM33.0586 190.309C33.332 191.539 33.8516 192.305 34.6172 192.605C35.3828 192.906 36.2852 192.852 37.3242 192.441C38.3633 192.031 39.498 191.334 40.7285 190.35C41.959 189.365 43.1895 188.217 44.4199 186.904C45.6504 185.564 46.8262 184.115 47.9473 182.557C49.0684 180.998 50.0391 179.453 50.8594 177.922C51.707 176.391 52.3496 174.928 52.7871 173.533C53.2246 172.139 53.3613 170.936 53.1973 169.924C53.0605 168.885 52.5684 168.105 51.7207 167.586C50.9004 167.066 49.6289 166.916 47.9062 167.135C47.2773 167.682 46.4434 168.488 45.4043 169.555C44.3652 170.594 43.2578 171.783 42.082 173.123C40.9062 174.463 39.7305 175.912 38.5547 177.471C37.3789 179.002 36.3398 180.533 35.4375 182.064C34.5352 183.596 33.8516 185.072 33.3867 186.494C32.9219 187.916 32.8125 189.188 33.0586 190.309ZM97.5215 193.398C97.3392 192.852 97.3757 192.378 97.6309 191.977C97.8861 191.539 98.2689 191.174 98.7793 190.883C101.04 189.753 103.245 188.805 105.396 188.039C107.548 187.237 109.662 186.453 111.74 185.688C113.855 184.885 115.951 184.01 118.029 183.062C120.107 182.078 122.222 180.82 124.373 179.289C129.149 176.518 132.813 173.93 135.365 171.523C137.917 169.117 139.613 166.948 140.451 165.016C141.29 163.047 141.399 161.333 140.779 159.875C140.16 158.38 139.084 157.177 137.553 156.266C136.021 155.354 134.144 154.753 131.92 154.461C129.732 154.133 127.454 154.151 125.084 154.516C122.714 154.88 120.399 155.609 118.139 156.703C115.878 157.76 113.928 159.237 112.287 161.133C112.251 161.206 112.196 161.333 112.123 161.516C112.05 161.698 111.977 161.898 111.904 162.117C111.868 162.299 111.813 162.5 111.74 162.719C111.704 162.901 111.686 163.01 111.686 163.047C110.592 165.672 109.553 167.932 108.568 169.828C107.62 171.688 106.709 173.492 105.834 175.242C104.995 176.956 104.193 178.797 103.428 180.766C102.662 182.698 101.933 185.049 101.24 187.82C100.584 188.039 100.11 188.021 99.8184 187.766C99.5632 187.51 99.4173 187.128 99.3809 186.617C99.3444 186.07 99.3991 185.451 99.5449 184.758C99.7272 184.065 99.9277 183.391 100.146 182.734C100.365 182.078 100.584 181.477 100.803 180.93C101.021 180.383 101.167 180 101.24 179.781C101.532 178.943 101.988 177.867 102.607 176.555C103.227 175.206 103.883 173.802 104.576 172.344C105.269 170.885 105.925 169.482 106.545 168.133C107.165 166.784 107.639 165.69 107.967 164.852C107.639 163.794 107.566 162.865 107.748 162.062C107.967 161.224 108.331 160.477 108.842 159.82C109.352 159.128 109.972 158.508 110.701 157.961C111.43 157.378 112.16 156.812 112.889 156.266C114.967 154.734 117.209 153.549 119.615 152.711C122.021 151.872 124.464 151.417 126.943 151.344C129.459 151.234 131.956 151.544 134.436 152.273C136.915 153.003 139.248 154.188 141.436 155.828C143.186 157.286 144.206 158.872 144.498 160.586C144.826 162.299 144.589 164.068 143.787 165.891C142.985 167.677 141.727 169.5 140.014 171.359C138.337 173.219 136.368 175.042 134.107 176.828C131.847 178.615 129.386 180.346 126.725 182.023C124.1 183.664 121.456 185.195 118.795 186.617C116.17 188.003 113.6 189.242 111.084 190.336C108.605 191.393 106.381 192.232 104.412 192.852C102.48 193.471 100.894 193.854 99.6543 194C98.4147 194.109 97.7038 193.909 97.5215 193.398ZM145.25 193.549C143.883 192.975 142.98 192.182 142.543 191.17C142.105 190.131 141.955 189.023 142.092 187.848C142.229 186.645 142.557 185.441 143.076 184.238C143.623 183.035 144.184 181.969 144.758 181.039C144.949 180.711 145.305 180.15 145.824 179.357C146.344 178.564 146.891 177.73 147.465 176.855C148.066 175.953 148.627 175.119 149.146 174.354C149.693 173.561 150.076 173.014 150.295 172.713C150.623 170.607 151.279 168.939 152.264 167.709C153.248 166.451 154.355 165.59 155.586 165.125C156.844 164.66 158.129 164.564 159.441 164.838C160.754 165.084 161.902 165.672 162.887 166.602C163.871 167.504 164.582 168.721 165.02 170.252C165.457 171.783 165.416 173.574 164.896 175.625C164.404 177.676 163.338 179.973 161.697 182.516C160.057 185.059 157.65 187.807 154.479 190.76C153.932 191.279 153.275 191.785 152.51 192.277C151.771 192.742 150.979 193.125 150.131 193.426C149.311 193.727 148.477 193.904 147.629 193.959C146.781 194.014 145.988 193.877 145.25 193.549ZM143.814 190.309C144.088 191.539 144.607 192.305 145.373 192.605C146.139 192.906 147.041 192.852 148.08 192.441C149.119 192.031 150.254 191.334 151.484 190.35C152.715 189.365 153.945 188.217 155.176 186.904C156.406 185.564 157.582 184.115 158.703 182.557C159.824 180.998 160.795 179.453 161.615 177.922C162.463 176.391 163.105 174.928 163.543 173.533C163.98 172.139 164.117 170.936 163.953 169.924C163.816 168.885 163.324 168.105 162.477 167.586C161.656 167.066 160.385 166.916 158.662 167.135C158.033 167.682 157.199 168.488 156.16 169.555C155.121 170.594 154.014 171.783 152.838 173.123C151.662 174.463 150.486 175.912 149.311 177.471C148.135 179.002 147.096 180.533 146.193 182.064C145.291 183.596 144.607 185.072 144.143 186.494C143.678 187.916 143.568 189.188 143.814 190.309ZM208.605 193.398C208.022 192.997 207.785 192.396 207.895 191.594C208.004 190.792 208.259 189.971 208.66 189.133C209.061 188.185 209.645 187.146 210.41 186.016C211.577 183.792 212.616 181.805 213.527 180.055C214.475 178.268 215.35 176.591 216.152 175.023C216.954 173.456 217.72 171.943 218.449 170.484C219.178 169.026 219.908 167.495 220.637 165.891C221.402 164.286 222.186 162.573 222.988 160.75C223.79 158.927 224.684 156.849 225.668 154.516C225.741 154.37 225.85 154.169 225.996 153.914C226.178 153.622 226.379 153.404 226.598 153.258C226.853 153.076 227.108 153.021 227.363 153.094C227.618 153.13 227.874 153.385 228.129 153.859C228.493 154.589 228.512 155.591 228.184 156.867C227.892 158.143 227.363 159.62 226.598 161.297C225.832 162.938 224.921 164.724 223.863 166.656C222.806 168.552 221.694 170.484 220.527 172.453C219.361 174.422 218.212 176.372 217.082 178.305C215.952 180.237 214.949 182.042 214.074 183.719C213.236 185.396 212.579 186.927 212.105 188.312C211.668 189.661 211.522 190.737 211.668 191.539C214.257 191.794 216.863 191.776 219.488 191.484C222.113 191.193 224.738 190.846 227.363 190.445C229.988 190.008 232.613 189.625 235.238 189.297C237.9 188.969 240.543 188.896 243.168 189.078C243.642 189.005 244.043 189.169 244.371 189.57C244.699 189.971 244.717 190.409 244.426 190.883C244.353 190.883 244.189 190.883 243.934 190.883C243.715 190.846 243.478 190.828 243.223 190.828C242.967 190.828 242.712 190.846 242.457 190.883C242.238 190.883 242.074 190.883 241.965 190.883C239.923 191.065 237.535 191.393 234.801 191.867C232.066 192.305 229.241 192.724 226.324 193.125C223.408 193.526 220.491 193.836 217.574 194.055C214.694 194.273 212.087 194.255 209.754 194C209.717 194 209.535 193.927 209.207 193.781C208.915 193.599 208.715 193.471 208.605 193.398ZM245.807 192.605C245.752 192.414 245.738 192.154 245.766 191.826C245.82 191.471 245.875 191.115 245.93 190.76C246.012 190.404 246.094 190.09 246.176 189.816C246.258 189.543 246.299 189.393 246.299 189.365L255.568 165.248C255.76 164.756 255.938 164.578 256.102 164.715C256.266 164.824 256.389 165.084 256.471 165.494C256.58 165.877 256.635 166.328 256.635 166.848C256.635 167.34 256.58 167.736 256.471 168.037C255.596 170.115 254.707 172.207 253.805 174.312C252.93 176.391 252.082 178.496 251.262 180.629C250.469 182.734 249.717 184.867 249.006 187.027C248.295 189.16 247.693 191.334 247.201 193.549C246.982 193.686 246.791 193.74 246.627 193.713C246.49 193.686 246.354 193.617 246.217 193.508C246.107 193.371 246.012 193.221 245.93 193.057C245.875 192.893 245.834 192.742 245.807 192.605ZM258.111 193.549C257.975 193.494 257.646 193.344 257.127 193.098C256.635 192.852 256.17 192.564 255.732 192.236C255.295 191.908 254.98 191.566 254.789 191.211C254.625 190.855 254.803 190.555 255.322 190.309C255.623 190.582 256.033 190.91 256.553 191.293C257.1 191.676 257.619 191.963 258.111 192.154C259.615 192.236 261.078 192.25 262.5 192.195C263.922 192.113 265.303 191.936 266.643 191.662C268.01 191.361 269.322 190.924 270.58 190.35C271.865 189.748 273.109 188.969 274.312 188.012C275.652 186.891 276.527 185.865 276.938 184.936C277.375 183.979 277.457 183.104 277.184 182.311C276.938 181.49 276.404 180.738 275.584 180.055C274.791 179.344 273.834 178.688 272.713 178.086C271.619 177.457 270.443 176.883 269.186 176.363C267.928 175.816 266.725 175.297 265.576 174.805C264.428 174.285 263.389 173.779 262.459 173.287C261.529 172.795 260.846 172.289 260.408 171.77C260.299 171.305 260.531 170.758 261.105 170.129C261.68 169.5 262.473 168.857 263.484 168.201C264.496 167.518 265.658 166.848 266.971 166.191C268.283 165.508 269.623 164.893 270.99 164.346C272.385 163.799 273.725 163.334 275.01 162.951C276.322 162.568 277.471 162.336 278.455 162.254C279.439 162.145 280.191 162.213 280.711 162.459C281.23 162.705 281.408 163.17 281.244 163.854C281.053 163.881 280.561 164.004 279.768 164.223C278.975 164.441 278.004 164.715 276.855 165.043C275.734 165.371 274.504 165.754 273.164 166.191C271.852 166.629 270.553 167.094 269.268 167.586C267.982 168.051 266.793 168.529 265.699 169.021C264.605 169.514 263.744 169.992 263.115 170.457C262.486 170.922 262.131 171.346 262.049 171.729C261.994 172.111 262.363 172.439 263.156 172.713C267.148 173.916 270.279 175.201 272.549 176.568C274.846 177.908 276.459 179.275 277.389 180.67C278.318 182.037 278.674 183.391 278.455 184.73C278.236 186.07 277.635 187.314 276.65 188.463C275.693 189.611 274.436 190.637 272.877 191.539C271.318 192.414 269.664 193.098 267.914 193.59C266.191 194.082 264.455 194.342 262.705 194.369C260.982 194.396 259.451 194.123 258.111 193.549ZM286.74 193.549C286.576 192.865 286.576 192.086 286.74 191.211C286.932 190.309 287.191 189.406 287.52 188.504C287.848 187.602 288.203 186.74 288.586 185.92C288.969 185.072 289.283 184.375 289.529 183.828C289.666 183.5 289.871 183.021 290.145 182.393C290.445 181.764 290.773 181.053 291.129 180.26C291.512 179.467 291.895 178.633 292.277 177.758C292.688 176.883 293.07 176.049 293.426 175.256C293.809 174.463 294.137 173.766 294.41 173.164C294.711 172.535 294.93 172.07 295.066 171.77C294.602 171.688 293.932 171.729 293.057 171.893C292.209 172.057 291.266 172.275 290.227 172.549C289.188 172.795 288.121 173.055 287.027 173.328C285.934 173.602 284.908 173.807 283.951 173.943C283.021 174.053 282.215 174.066 281.531 173.984C280.875 173.875 280.465 173.588 280.301 173.123C280.492 172.768 281.189 172.357 282.393 171.893C283.596 171.428 285.127 170.949 286.986 170.457C288.873 169.938 290.965 169.418 293.262 168.898C295.586 168.379 297.951 167.887 300.357 167.422C302.764 166.957 305.115 166.533 307.412 166.15C309.709 165.768 311.76 165.453 313.564 165.207C315.369 164.961 316.818 164.797 317.912 164.715C319.033 164.633 319.621 164.66 319.676 164.797C319.758 165.016 319.771 165.289 319.717 165.617C319.662 165.918 319.484 166.109 319.184 166.191C317.844 166.41 316.395 166.656 314.836 166.93C313.277 167.176 311.691 167.449 310.078 167.75C308.492 168.023 306.934 168.311 305.402 168.611C303.871 168.885 302.449 169.158 301.137 169.432C300.289 169.596 299.469 170.088 298.676 170.908C297.883 171.729 297.117 172.754 296.379 173.984C295.641 175.188 294.93 176.541 294.246 178.045C293.562 179.521 292.906 181.025 292.277 182.557C291.676 184.088 291.115 185.564 290.596 186.986C290.076 188.408 289.598 189.666 289.16 190.76C288.723 191.826 288.34 192.66 288.012 193.262C287.684 193.863 287.41 194.109 287.191 194C287.137 193.945 287.055 193.863 286.945 193.754C286.836 193.645 286.768 193.576 286.74 193.549Z"
        fill="url(#paint0_linear)"
      />
      <path
        d="M27.5 2.5H296.5V105.5H27.5V2.5Z"
        stroke="#015CBF"
        stroke-width="5"
      />
      <rect
        x="35.5"
        y="11.5"
        width="252"
        height="105"
        stroke="#6492CB"
        stroke-width="3"
      />
      <path
      d="M142.926 72.85V74.85H144.926V72.85H142.926ZM142.926 70.266H144.926V68.266H142.926V70.266ZM128.884 70.266L126.902 70.0017L126.6 72.266H128.884V70.266ZM129.428 60.61L131.428 60.635L131.453 58.61H129.428V60.61ZM126.708 60.61V58.61H124.733L124.708 60.5847L126.708 60.61ZM126.198 70.266V72.266H127.933L128.178 70.5488L126.198 70.266ZM113.244 70.266V68.266H111.244V70.266H113.244ZM113.244 72.85H111.244V74.85H113.244V72.85ZM125.79 72.85L127.745 73.274L128.27 70.85H125.79V72.85ZM112.564 89.476L111.765 87.6423L108.529 89.0517L111.402 91.1035L112.564 89.476ZM114.468 91.55L112.716 92.5138L113.61 94.1406L115.299 93.3692L114.468 91.55ZM128.034 74.72L129.923 74.0626L127.72 67.7316L126.094 74.2349L128.034 74.72ZM141.566 91.55L140.709 93.3573L142.359 94.1392L143.288 92.5675L141.566 91.55ZM143.47 89.17L144.843 90.624L147.098 88.4941L144.228 87.3191L143.47 89.17ZM130.108 72.85V70.85H127.373L128.202 73.4564L130.108 72.85ZM144.926 72.85V70.266H140.926V72.85H144.926ZM142.926 68.266H128.884V72.266H142.926V68.266ZM130.866 70.5303C131.361 66.8239 131.394 63.3422 131.428 60.635L127.428 60.585C127.394 63.3178 127.359 66.5681 126.902 70.0017L130.866 70.5303ZM129.428 58.61H126.708V62.61H129.428V58.61ZM124.708 60.5847C124.673 63.328 124.705 66.5724 124.218 69.9832L128.178 70.5488C128.711 66.8196 128.675 63.264 128.708 60.6353L124.708 60.5847ZM126.198 68.266H113.244V72.266H126.198V68.266ZM111.244 70.266V72.85H115.244V70.266H111.244ZM113.244 74.85H125.79V70.85H113.244V74.85ZM123.835 72.426C122.535 78.4229 119.443 84.2989 111.765 87.6423L113.363 91.3097C122.549 87.3091 126.257 80.1291 127.745 73.274L123.835 72.426ZM111.402 91.1035C111.91 91.467 112.507 92.1353 112.716 92.5138L116.22 90.5862C115.681 89.6047 114.646 88.505 113.726 87.8485L111.402 91.1035ZM115.299 93.3692C124.261 89.2755 128.239 82.1473 129.974 75.2051L126.094 74.2349C124.565 80.3487 121.199 86.2765 113.637 89.7308L115.299 93.3692ZM126.145 75.3774C128.937 83.3998 133.533 89.9561 140.709 93.3573L142.423 89.7427C136.543 86.9559 132.503 81.4762 129.923 74.0626L126.145 75.3774ZM143.288 92.5675C143.632 91.9854 144.363 91.0775 144.843 90.624L142.097 87.716C141.353 88.4185 140.384 89.6186 139.844 90.5325L143.288 92.5675ZM144.228 87.3191C138.403 84.935 134.287 79.3888 132.014 72.2436L128.202 73.4564C130.689 81.2712 135.413 88.033 142.712 91.0209L144.228 87.3191ZM130.108 74.85H142.926V70.85H130.108V74.85ZM158.566 61.732H160.566V59.732H158.566V61.732ZM148.196 61.732V59.732H146.196V61.732H148.196ZM148.196 63.772H146.196V65.772H148.196V63.772ZM158.566 63.772V65.772H160.566V63.772H158.566ZM159.824 66.186H161.824V64.186H159.824V66.186ZM146.428 66.186V64.186H144.428V66.186H146.428ZM146.428 68.26H144.428V70.26H146.428V68.26ZM159.824 68.26V70.26H161.824V68.26H159.824ZM156.186 81.894H158.186V79.894H156.186V81.894ZM156.186 87.606V89.606H158.186V87.606H156.186ZM150.236 87.606H148.236V89.606H150.236V87.606ZM150.236 81.894V79.894H148.236V81.894H150.236ZM158.464 79.82H160.464V77.82H158.464V79.82ZM147.992 79.82V77.82H145.992V79.82H147.992ZM147.992 91.21H145.992V93.21H147.992V91.21ZM150.236 91.21V93.21H152.236V91.21H150.236ZM150.236 89.646V87.646H148.236V89.646H150.236ZM158.464 89.646V91.646H160.464V89.646H158.464ZM148.026 77.304H146.026V79.304H148.026V77.304ZM158.566 77.304V79.304H160.566V77.304H158.566ZM158.566 75.264H160.566V73.264H158.566V75.264ZM148.026 75.264V73.264H146.026V75.264H148.026ZM148.026 72.782H146.026V74.782H148.026V72.782ZM158.566 72.782V74.782H160.566V72.782H158.566ZM158.566 70.776H160.566V68.776H158.566V70.776ZM148.026 70.776V68.776H146.026V70.776H148.026ZM177.878 72.102H179.878V70.102H177.878V72.102ZM170.262 72.102H168.262V74.102H170.262V72.102ZM170.262 60.644H172.262V58.644H170.262V60.644ZM167.746 60.644V58.644H165.746V60.644H167.746ZM167.746 72.102V74.102H169.746V72.102H167.746ZM159.79 72.102V70.102H157.79V72.102H159.79ZM159.79 74.584H157.79V76.584H159.79V74.584ZM167.746 74.584H169.746V72.584H167.746V74.584ZM167.746 91.584H165.746V93.584H167.746V91.584ZM170.262 91.584V93.584H172.262V91.584H170.262ZM170.262 74.584V72.584H168.262V74.584H170.262ZM177.878 74.584V76.584H179.878V74.584H177.878ZM158.566 59.732H148.196V63.732H158.566V59.732ZM146.196 61.732V63.772H150.196V61.732H146.196ZM148.196 65.772H158.566V61.772H148.196V65.772ZM160.566 63.772V61.732H156.566V63.772H160.566ZM159.824 64.186H146.428V68.186H159.824V64.186ZM144.428 66.186V68.26H148.428V66.186H144.428ZM146.428 70.26H159.824V66.26H146.428V70.26ZM161.824 68.26V66.186H157.824V68.26H161.824ZM154.186 81.894V87.606H158.186V81.894H154.186ZM156.186 85.606H150.236V89.606H156.186V85.606ZM152.236 87.606V81.894H148.236V87.606H152.236ZM150.236 83.894H156.186V79.894H150.236V83.894ZM158.464 77.82H147.992V81.82H158.464V77.82ZM145.992 79.82V91.21H149.992V79.82H145.992ZM147.992 93.21H150.236V89.21H147.992V93.21ZM152.236 91.21V89.646H148.236V91.21H152.236ZM150.236 91.646H158.464V87.646H150.236V91.646ZM160.464 89.646V79.82H156.464V89.646H160.464ZM148.026 79.304H158.566V75.304H148.026V79.304ZM160.566 77.304V75.264H156.566V77.304H160.566ZM158.566 73.264H148.026V77.264H158.566V73.264ZM146.026 75.264V77.304H150.026V75.264H146.026ZM148.026 74.782H158.566V70.782H148.026V74.782ZM160.566 72.782V70.776H156.566V72.782H160.566ZM158.566 68.776H148.026V72.776H158.566V68.776ZM146.026 70.776V72.782H150.026V70.776H146.026ZM177.878 70.102H170.262V74.102H177.878V70.102ZM172.262 72.102V60.644H168.262V72.102H172.262ZM170.262 58.644H167.746V62.644H170.262V58.644ZM165.746 60.644V72.102H169.746V60.644H165.746ZM167.746 70.102H159.79V74.102H167.746V70.102ZM157.79 72.102V74.584H161.79V72.102H157.79ZM159.79 76.584H167.746V72.584H159.79V76.584ZM165.746 74.584V91.584H169.746V74.584H165.746ZM167.746 93.584H170.262V89.584H167.746V93.584ZM172.262 91.584V74.584H168.262V91.584H172.262ZM170.262 76.584H177.878V72.584H170.262V76.584ZM179.878 74.584V72.102H175.878V74.584H179.878ZM180.7 90.768L178.71 90.967L178.898 92.8465L180.785 92.7662L180.7 90.768ZM199.91 89.782L200.017 91.7792L201.845 91.6815L201.909 89.8521L199.91 89.782ZM199.978 87.844L201.977 87.9141L202.053 85.7439L199.884 85.8462L199.978 87.844ZM180.496 88.728L180.41 86.7299L178.295 86.8211L178.506 88.927L180.496 88.728ZM195.762 82.132V84.132H197.762V82.132H195.762ZM191.41 82.132H189.41V84.132H191.41V82.132ZM191.41 80.5V78.5H189.41V80.5H191.41ZM195.762 80.5H197.762V78.5H195.762V80.5ZM195.762 85.158V87.158H197.762V85.158H195.762ZM191.41 85.158H189.41V87.158H191.41V85.158ZM191.41 83.526V81.526H189.41V83.526H191.41ZM195.762 83.526H197.762V81.526H195.762V83.526ZM184.848 83.526V81.526H182.848V83.526H184.848ZM189.234 83.526H191.234V81.526H189.234V83.526ZM189.234 85.158V87.158H191.234V85.158H189.234ZM184.848 85.158H182.848V87.158H184.848V85.158ZM184.848 80.5V78.5H182.848V80.5H184.848ZM189.234 80.5H191.234V78.5H189.234V80.5ZM189.234 82.132V84.132H191.234V82.132H189.234ZM184.848 82.132H182.848V84.132H184.848V82.132ZM182.774 79.106V77.106H180.774V79.106H182.774ZM182.774 86.586H180.774V88.586H182.774V86.586ZM197.904 86.586V88.586H199.904V86.586H197.904ZM197.904 79.106H199.904V77.106H197.904V79.106ZM195.728 69.586V71.586H197.728V69.586H195.728ZM191.274 69.586H189.274V71.586H191.274V69.586ZM191.274 67.75V65.75H189.274V67.75H191.274ZM195.728 67.75H197.728V65.75H195.728V67.75ZM191.274 64.35V62.35H189.274V64.35H191.274ZM195.728 64.35H197.728V62.35H195.728V64.35ZM195.728 66.016V68.016H197.728V66.016H195.728ZM191.274 66.016H189.274V68.016H191.274V66.016ZM197.938 62.752H199.938V60.752H197.938V62.752ZM191.274 62.752H189.274V64.752H191.274V62.752ZM191.274 60.576H193.274V58.576H191.274V60.576ZM188.962 60.576V58.576H186.962V60.576H188.962ZM188.962 62.752V64.752H190.962V62.752H188.962ZM182.706 62.752V60.752H180.706V62.752H182.706ZM182.706 64.35H180.706V66.35H182.706V64.35ZM188.962 64.35H190.962V62.35H188.962V64.35ZM188.962 66.016V68.016H190.962V66.016H188.962ZM180.53 66.016V64.016H178.53V66.016H180.53ZM180.53 67.75H178.53V69.75H180.53V67.75ZM188.962 67.75H190.962V65.75H188.962V67.75ZM188.962 69.586V71.586H190.962V69.586H188.962ZM182.57 69.586V67.586H180.57V69.586H182.57ZM182.57 71.184H180.57V73.184H182.57V71.184ZM188.962 71.184H190.962V69.184H188.962V71.184ZM188.962 72.714V74.714H190.962V72.714H188.962ZM182.332 72.714V70.714H180.332V72.714H182.332ZM182.332 74.312H180.332V76.312H182.332V74.312ZM188.962 74.312H190.962V72.312H188.962V74.312ZM188.962 75.876V77.876H190.962V75.876H188.962ZM180.734 75.876V73.876H178.734V75.876H180.734ZM180.734 77.644H178.734V79.644H180.734V77.644ZM199.842 77.644V79.644H201.842V77.644H199.842ZM199.842 75.876H201.842V73.876H199.842V75.876ZM191.274 75.876H189.274V77.876H191.274V75.876ZM191.274 74.312V72.312H189.274V74.312H191.274ZM198.414 74.312V76.312H200.414V74.312H198.414ZM198.414 72.714H200.414V70.714H198.414V72.714ZM191.274 72.714H189.274V74.714H191.274V72.714ZM191.274 71.184V69.184H189.274V71.184H191.274ZM197.938 71.184V73.184H199.938V71.184H197.938ZM197.938 67.75V65.75H195.938V67.75H197.938ZM200.046 67.75V69.75H202.046V67.75H200.046ZM200.046 66.016H202.046V64.016H200.046V66.016ZM197.938 66.016H195.938V68.016H197.938V66.016ZM203.616 64.622H205.616V62.622H203.616V64.622ZM201.304 64.622V62.622H199.304V64.622H201.304ZM201.304 83.322H199.304V85.322H201.304V83.322ZM203.616 83.322V85.322H205.616V83.322H203.616ZM207.73 61.222V59.222H205.73V61.222H207.73ZM206.914 89.17L206.797 87.1734L206.784 87.1742L206.772 87.1751L206.914 89.17ZM202.698 89.136L202.767 87.1372L199.405 87.0212L200.909 90.0304L202.698 89.136ZM203.48 91.584L201.491 91.7934L201.679 93.584H203.48V91.584ZM208.75 91.142L209.481 93.0035L209.525 92.9863L209.568 92.967L208.75 91.142ZM210.11 61.222H212.11V59.222H210.11V61.222ZM180.785 92.7662C185.593 92.5616 193.022 92.1527 200.017 91.7792L199.803 87.7848C192.79 88.1593 185.395 88.5664 180.615 88.7698L180.785 92.7662ZM201.909 89.8521L201.977 87.9141L197.979 87.7739L197.911 89.7119L201.909 89.8521ZM199.884 85.8462C192.678 86.1861 185.133 86.526 180.41 86.7299L180.582 90.7261C185.311 90.522 192.862 90.1819 200.072 89.8418L199.884 85.8462ZM178.506 88.927L178.71 90.967L182.69 90.569L182.486 88.529L178.506 88.927ZM195.762 80.132H191.41V84.132H195.762V80.132ZM193.41 82.132V80.5H189.41V82.132H193.41ZM191.41 82.5H195.762V78.5H191.41V82.5ZM193.762 80.5V82.132H197.762V80.5H193.762ZM195.762 83.158H191.41V87.158H195.762V83.158ZM193.41 85.158V83.526H189.41V85.158H193.41ZM191.41 85.526H195.762V81.526H191.41V85.526ZM193.762 83.526V85.158H197.762V83.526H193.762ZM184.848 85.526H189.234V81.526H184.848V85.526ZM187.234 83.526V85.158H191.234V83.526H187.234ZM189.234 83.158H184.848V87.158H189.234V83.158ZM186.848 85.158V83.526H182.848V85.158H186.848ZM184.848 82.5H189.234V78.5H184.848V82.5ZM187.234 80.5V82.132H191.234V80.5H187.234ZM189.234 80.132H184.848V84.132H189.234V80.132ZM186.848 82.132V80.5H182.848V82.132H186.848ZM180.774 79.106V86.586H184.774V79.106H180.774ZM182.774 88.586H197.904V84.586H182.774V88.586ZM199.904 86.586V79.106H195.904V86.586H199.904ZM197.904 77.106H182.774V81.106H197.904V77.106ZM195.728 67.586H191.274V71.586H195.728V67.586ZM193.274 69.586V67.75H189.274V69.586H193.274ZM191.274 69.75H195.728V65.75H191.274V69.75ZM193.728 67.75V69.586H197.728V67.75H193.728ZM191.274 66.35H195.728V62.35H191.274V66.35ZM193.728 64.35V66.016H197.728V64.35H193.728ZM195.728 64.016H191.274V68.016H195.728V64.016ZM193.274 66.016V64.35H189.274V66.016H193.274ZM197.938 60.752H191.274V64.752H197.938V60.752ZM193.274 62.752V60.576H189.274V62.752H193.274ZM191.274 58.576H188.962V62.576H191.274V58.576ZM186.962 60.576V62.752H190.962V60.576H186.962ZM188.962 60.752H182.706V64.752H188.962V60.752ZM180.706 62.752V64.35H184.706V62.752H180.706ZM182.706 66.35H188.962V62.35H182.706V66.35ZM186.962 64.35V66.016H190.962V64.35H186.962ZM188.962 64.016H180.53V68.016H188.962V64.016ZM178.53 66.016V67.75H182.53V66.016H178.53ZM180.53 69.75H188.962V65.75H180.53V69.75ZM186.962 67.75V69.586H190.962V67.75H186.962ZM188.962 67.586H182.57V71.586H188.962V67.586ZM180.57 69.586V71.184H184.57V69.586H180.57ZM182.57 73.184H188.962V69.184H182.57V73.184ZM186.962 71.184V72.714H190.962V71.184H186.962ZM188.962 70.714H182.332V74.714H188.962V70.714ZM180.332 72.714V74.312H184.332V72.714H180.332ZM182.332 76.312H188.962V72.312H182.332V76.312ZM186.962 74.312V75.876H190.962V74.312H186.962ZM188.962 73.876H180.734V77.876H188.962V73.876ZM178.734 75.876V77.644H182.734V75.876H178.734ZM180.734 79.644H199.842V75.644H180.734V79.644ZM201.842 77.644V75.876H197.842V77.644H201.842ZM199.842 73.876H191.274V77.876H199.842V73.876ZM193.274 75.876V74.312H189.274V75.876H193.274ZM191.274 76.312H198.414V72.312H191.274V76.312ZM200.414 74.312V72.714H196.414V74.312H200.414ZM198.414 70.714H191.274V74.714H198.414V70.714ZM193.274 72.714V71.184H189.274V72.714H193.274ZM191.274 73.184H197.938V69.184H191.274V73.184ZM199.938 71.184V67.75H195.938V71.184H199.938ZM197.938 69.75H200.046V65.75H197.938V69.75ZM202.046 67.75V66.016H198.046V67.75H202.046ZM200.046 64.016H197.938V68.016H200.046V64.016ZM199.938 66.016V62.752H195.938V66.016H199.938ZM203.616 62.622H201.304V66.622H203.616V62.622ZM199.304 64.622V83.322H203.304V64.622H199.304ZM201.304 85.322H203.616V81.322H201.304V85.322ZM205.616 83.322V64.622H201.616V83.322H205.616ZM205.73 61.222V88.422H209.73V61.222H205.73ZM205.73 88.422C205.73 88.4188 205.73 88.3901 205.736 88.3423C205.743 88.2943 205.757 88.2184 205.789 88.1246C205.858 87.9184 205.996 87.6791 206.225 87.4791C206.44 87.2918 206.646 87.2175 206.742 87.1904C206.83 87.1656 206.865 87.1694 206.797 87.1734L207.031 91.1665C207.393 91.1453 208.187 91.0746 208.852 90.4954C209.62 89.8269 209.73 88.9407 209.73 88.422H205.73ZM206.772 87.1751C206.415 87.2005 204.747 87.2055 202.767 87.1372L202.629 91.1348C204.593 91.2025 206.461 91.2075 207.056 91.1649L206.772 87.1751ZM200.909 90.0304C201.18 90.5715 201.456 91.4575 201.491 91.7934L205.469 91.3746C205.368 90.4185 204.896 89.0605 204.487 88.2416L200.909 90.0304ZM203.48 93.584C204.842 93.584 205.987 93.5675 206.926 93.4978C207.844 93.4296 208.722 93.3018 209.481 93.0035L208.019 89.2805C207.826 89.3562 207.429 89.4494 206.63 89.5087C205.852 89.5665 204.838 89.584 203.48 89.584V93.584ZM209.568 92.967C210.375 92.6053 211.115 92.0352 211.585 91.1042C212.011 90.2606 212.11 89.3194 212.11 88.422H208.11C208.11 89.0886 208.022 89.2864 208.014 89.3013C208.014 89.3013 208.015 89.3006 208.015 89.2994C208.016 89.2982 208.017 89.2965 208.018 89.2943C208.021 89.29 208.025 89.2846 208.029 89.2787C208.039 89.266 208.049 89.2567 208.054 89.2519C208.065 89.2424 208.039 89.2688 207.932 89.317L209.568 92.967ZM212.11 88.422V61.222H208.11V88.422H212.11ZM210.11 59.222H207.73V63.222H210.11V59.222Z"
      fill="#F8C2C2"
      />
      <path
        d="M142.926 72.85V70.266H128.884C129.36 66.696 129.394 63.33 129.428 60.61H126.708C126.674 63.296 126.708 66.696 126.198 70.266H113.244V72.85H125.79C124.396 79.276 120.996 85.804 112.564 89.476C113.278 89.986 114.094 90.87 114.468 91.55C122.73 87.776 126.402 81.248 128.034 74.72C130.72 82.438 135.038 88.456 141.566 91.55C142.008 90.802 142.858 89.748 143.47 89.17C136.908 86.484 132.488 80.33 130.108 72.85H142.926ZM158.566 61.732H148.196V63.772H158.566V61.732ZM159.824 66.186H146.428V68.26H159.824V66.186ZM156.186 81.894V87.606H150.236V81.894H156.186ZM158.464 79.82H147.992V91.21H150.236V89.646H158.464V79.82ZM148.026 77.304H158.566V75.264H148.026V77.304ZM148.026 72.782H158.566V70.776H148.026V72.782ZM177.878 72.102H170.262V60.644H167.746V72.102H159.79V74.584H167.746V91.584H170.262V74.584H177.878V72.102ZM180.7 90.768C185.494 90.564 192.906 90.156 199.91 89.782L199.978 87.844C192.77 88.184 185.222 88.524 180.496 88.728L180.7 90.768ZM195.762 82.132H191.41V80.5H195.762V82.132ZM195.762 85.158H191.41V83.526H195.762V85.158ZM184.848 83.526H189.234V85.158H184.848V83.526ZM184.848 80.5H189.234V82.132H184.848V80.5ZM182.774 79.106V86.586H197.904V79.106H182.774ZM195.728 69.586H191.274V67.75H195.728V69.586ZM191.274 64.35H195.728V66.016H191.274V64.35ZM197.938 62.752H191.274V60.576H188.962V62.752H182.706V64.35H188.962V66.016H180.53V67.75H188.962V69.586H182.57V71.184H188.962V72.714H182.332V74.312H188.962V75.876H180.734V77.644H199.842V75.876H191.274V74.312H198.414V72.714H191.274V71.184H197.938V67.75H200.046V66.016H197.938V62.752ZM203.616 64.622H201.304V83.322H203.616V64.622ZM207.73 61.222V88.422C207.73 88.966 207.492 89.136 206.914 89.17C206.438 89.204 204.67 89.204 202.698 89.136C203.038 89.816 203.412 90.938 203.48 91.584C206.2 91.584 207.798 91.516 208.75 91.142C209.736 90.7 210.11 89.986 210.11 88.422V61.222H207.73Z"
        fill="white"
      />
      <path
      d="M135.495 24.628V22.628H133.495V24.628H135.495ZM134.741 46V44H134.688L134.636 44.0028L134.741 46ZM130.477 45.974L130.559 43.9757L126.947 43.8272L128.74 46.9663L130.477 45.974ZM131.283 47.976L129.337 48.4392L129.699 49.9591L131.261 49.9759L131.283 47.976ZM136.249 47.638L136.881 49.5354L136.913 49.5247L136.945 49.5128L136.249 47.638ZM137.549 24.628H139.549V22.628H137.549V24.628ZM141.709 31.18L140.989 29.314L138.78 30.1662L139.99 32.2019L141.709 31.18ZM146.623 42.802L144.663 43.2006L145.15 45.5966L147.402 44.6439L146.623 42.802ZM148.651 41.944L149.43 43.7859L150.947 43.1443L150.608 41.5328L148.651 41.944ZM143.529 30.478L145.222 29.4137L144.346 28.0193L142.809 28.612L143.529 30.478ZM128.709 30.66L129.069 28.6926L127.094 28.3314L126.74 30.3074L128.709 30.66ZM124.341 41.346L122.815 40.0528L121.019 42.1715L123.598 43.203L124.341 41.346ZM126.161 42.36L124.99 43.9814L126.523 45.0887L127.714 43.6196L126.161 42.36ZM130.841 31.05L132.794 31.481L133.241 29.4558L131.201 29.0826L130.841 31.05ZM133.495 24.628V45.298H137.495V24.628H133.495ZM133.495 45.298C133.495 45.2974 133.495 45.2915 133.495 45.2809C133.496 45.2704 133.497 45.254 133.5 45.2326C133.505 45.1909 133.517 45.1213 133.544 45.0335C133.603 44.8441 133.729 44.5925 133.969 44.3713C134.425 43.9524 134.892 44 134.741 44V48C135.135 48 135.979 47.9566 136.676 47.3167C137.418 46.6346 137.495 45.749 137.495 45.298H133.495ZM134.636 44.0028C134.218 44.0247 132.411 44.0518 130.559 43.9757L130.395 47.9723C132.339 48.0522 134.275 48.0273 134.846 47.9972L134.636 44.0028ZM128.74 46.9663C128.965 47.3602 129.255 48.093 129.337 48.4392L133.228 47.5128C133.051 46.767 132.612 45.6798 132.213 44.9817L128.74 46.9663ZM131.261 49.9759C132.479 49.989 133.544 49.9833 134.44 49.9302C135.311 49.8786 136.159 49.7761 136.881 49.5354L135.616 45.7406C135.403 45.8119 134.977 45.8914 134.203 45.9373C133.454 45.9817 132.505 45.989 131.304 45.9761L131.261 49.9759ZM136.945 49.5128C137.674 49.2422 138.452 48.7741 138.97 47.8814C139.442 47.067 139.549 46.1472 139.549 45.298H135.549C135.549 45.5713 135.53 45.7395 135.511 45.836C135.493 45.9274 135.481 45.9235 135.51 45.8736C135.544 45.8147 135.594 45.7626 135.635 45.7313C135.666 45.7083 135.655 45.7249 135.552 45.7631L136.945 49.5128ZM139.549 45.298V24.628H135.549V45.298H139.549ZM137.549 22.628H135.495V26.628H137.549V22.628ZM139.99 32.2019C142.136 35.8123 144.1 40.4321 144.663 43.2006L148.583 42.4034C147.898 39.0359 145.702 33.9837 143.428 30.1581L139.99 32.2019ZM147.402 44.6439L149.43 43.7859L147.872 40.1021L145.844 40.9601L147.402 44.6439ZM150.608 41.5328C149.89 38.1138 147.573 33.1532 145.222 29.4137L141.836 31.5423C144.061 35.0828 146.112 39.5862 146.694 42.3552L150.608 41.5328ZM142.809 28.612L140.989 29.314L142.429 33.046L144.249 32.344L142.809 28.612ZM126.74 30.3074C126.137 33.6758 124.786 37.7274 122.815 40.0528L125.866 42.6392C128.523 39.5046 130.033 34.6122 130.677 31.0126L126.74 30.3074ZM123.598 43.203C123.95 43.3438 124.64 43.7284 124.99 43.9814L127.332 40.7386C126.746 40.3156 125.771 39.7642 125.084 39.489L123.598 43.203ZM127.714 43.6196C130.364 40.3517 131.95 35.3064 132.794 31.481L128.888 30.619C128.068 34.3336 126.638 38.5963 124.607 41.1004L127.714 43.6196ZM131.201 29.0826L129.069 28.6926L128.349 32.6274L130.481 33.0174L131.201 29.0826ZM169.529 42.568V44.568H171.529V42.568H169.529ZM163.289 42.568H161.289V44.568H163.289V42.568ZM163.289 40.618V38.618H161.289V40.618H163.289ZM169.529 40.618H171.529V38.618H169.529V40.618ZM163.289 37.264V35.264H161.289V37.264H163.289ZM169.529 37.264H171.529V35.264H169.529V37.264ZM169.529 39.084V41.084H171.529V39.084H169.529ZM163.289 39.084H161.289V41.084H163.289V39.084ZM155.775 32.662H153.775V34.662H155.775V32.662ZM155.775 30.79V28.79H153.775V30.79H155.775ZM161.365 30.79H163.365V28.79H161.365V30.79ZM161.365 32.662V34.662H163.365V32.662H161.365ZM169.113 30.79H171.113V28.79H169.113V30.79ZM169.113 32.662V34.662H171.113V32.662H169.113ZM163.289 32.662H161.289V34.662H163.289V32.662ZM163.289 30.79V28.79H161.289V30.79H163.289ZM174.131 39.084H176.131V37.084H174.131V39.084ZM171.453 39.084H169.453V41.084H171.453V39.084ZM171.453 35.834H173.453V33.834H171.453V35.834ZM163.289 35.834H161.289V37.834H163.289V35.834ZM163.289 34.014V32.014H161.289V34.014H163.289ZM171.037 34.014V36.014H173.037V34.014H171.037ZM171.037 29.438H173.037V27.438H171.037V29.438ZM163.289 29.438H161.289V31.438H163.289V29.438ZM163.289 27.93V25.93H161.289V27.93H163.289ZM173.637 27.93V29.93H175.637V27.93H173.637ZM173.637 26.344H175.637V24.344H173.637V26.344ZM163.289 26.344H161.289V28.344H163.289V26.344ZM163.289 24.264H165.289V22.264H163.289V24.264ZM161.365 24.264V22.264H159.365V24.264H161.365ZM161.365 26.344V28.344H163.365V26.344H161.365ZM151.225 26.344V24.344H149.225V26.344H151.225ZM151.225 27.93H149.225V29.93H151.225V27.93ZM161.365 27.93H163.365V25.93H161.365V27.93ZM161.365 29.438V31.438H163.365V29.438H161.365ZM153.929 29.438V27.438H151.929V29.438H153.929ZM153.929 34.014H151.929V36.014H153.929V34.014ZM161.365 34.014H163.365V32.014H161.365V34.014ZM161.365 35.834V37.834H163.365V35.834H161.365ZM153.201 35.834V33.834H151.201V35.834H153.201ZM153.201 37.264H151.201V39.264H153.201V37.264ZM161.365 37.264H163.365V35.264H161.365V37.264ZM161.365 39.084V41.084H163.365V39.084H161.365ZM150.731 39.084V37.084H148.731V39.084H150.731ZM150.731 40.618H148.731V42.618H150.731V40.618ZM161.365 40.618H163.365V38.618H161.365V40.618ZM161.365 42.568V44.568H163.365V42.568H161.365ZM152.967 42.568V40.568H150.967V42.568H152.967ZM152.967 44.05H150.967V46.05H152.967V44.05ZM161.365 44.05H163.365V42.05H161.365V44.05ZM160.715 46.468V48.468H160.767L160.82 48.4652L160.715 46.468ZM157.153 46.442L157.219 44.4431L153.585 44.322L155.429 47.456L157.153 46.442ZM157.829 48.08L155.872 48.492L156.206 50.08H157.829V48.08ZM162.145 47.768L162.814 49.6529L162.823 49.6494L162.833 49.6458L162.145 47.768ZM163.289 44.05V42.05H161.289V44.05H163.289ZM169.529 44.05H171.529V42.05H169.529V44.05ZM169.529 45.22H167.529V47.22H169.529V45.22ZM171.453 45.22V47.22H173.453V45.22H171.453ZM171.453 40.618V38.618H169.453V40.618H171.453ZM174.131 40.618V42.618H176.131V40.618H174.131ZM169.529 40.568H163.289V44.568H169.529V40.568ZM165.289 42.568V40.618H161.289V42.568H165.289ZM163.289 42.618H169.529V38.618H163.289V42.618ZM167.529 40.618V42.568H171.529V40.618H167.529ZM163.289 39.264H169.529V35.264H163.289V39.264ZM167.529 37.264V39.084H171.529V37.264H167.529ZM169.529 37.084H163.289V41.084H169.529V37.084ZM165.289 39.084V37.264H161.289V39.084H165.289ZM157.775 32.662V30.79H153.775V32.662H157.775ZM155.775 32.79H161.365V28.79H155.775V32.79ZM159.365 30.79V32.662H163.365V30.79H159.365ZM161.365 30.662H155.775V34.662H161.365V30.662ZM167.113 30.79V32.662H171.113V30.79H167.113ZM169.113 30.662H163.289V34.662H169.113V30.662ZM165.289 32.662V30.79H161.289V32.662H165.289ZM163.289 32.79H169.113V28.79H163.289V32.79ZM174.131 37.084H171.453V41.084H174.131V37.084ZM173.453 39.084V35.834H169.453V39.084H173.453ZM171.453 33.834H163.289V37.834H171.453V33.834ZM165.289 35.834V34.014H161.289V35.834H165.289ZM163.289 36.014H171.037V32.014H163.289V36.014ZM173.037 34.014V29.438H169.037V34.014H173.037ZM171.037 27.438H163.289V31.438H171.037V27.438ZM165.289 29.438V27.93H161.289V29.438H165.289ZM163.289 29.93H173.637V25.93H163.289V29.93ZM175.637 27.93V26.344H171.637V27.93H175.637ZM173.637 24.344H163.289V28.344H173.637V24.344ZM165.289 26.344V24.264H161.289V26.344H165.289ZM163.289 22.264H161.365V26.264H163.289V22.264ZM159.365 24.264V26.344H163.365V24.264H159.365ZM161.365 24.344H151.225V28.344H161.365V24.344ZM149.225 26.344V27.93H153.225V26.344H149.225ZM151.225 29.93H161.365V25.93H151.225V29.93ZM159.365 27.93V29.438H163.365V27.93H159.365ZM161.365 27.438H153.929V31.438H161.365V27.438ZM151.929 29.438V34.014H155.929V29.438H151.929ZM153.929 36.014H161.365V32.014H153.929V36.014ZM159.365 34.014V35.834H163.365V34.014H159.365ZM161.365 33.834H153.201V37.834H161.365V33.834ZM151.201 35.834V37.264H155.201V35.834H151.201ZM153.201 39.264H161.365V35.264H153.201V39.264ZM159.365 37.264V39.084H163.365V37.264H159.365ZM161.365 37.084H150.731V41.084H161.365V37.084ZM148.731 39.084V40.618H152.731V39.084H148.731ZM150.731 42.618H161.365V38.618H150.731V42.618ZM159.365 40.618V42.568H163.365V40.618H159.365ZM161.365 40.568H152.967V44.568H161.365V40.568ZM150.967 42.568V44.05H154.967V42.568H150.967ZM152.967 46.05H161.365V42.05H152.967V46.05ZM159.365 44.05V45.844H163.365V44.05H159.365ZM159.365 45.844C159.365 45.8423 159.365 45.8167 159.37 45.7736C159.374 45.7306 159.385 45.6588 159.412 45.5682C159.468 45.3725 159.591 45.1098 159.834 44.8748C160.069 44.6475 160.311 44.5476 160.451 44.5058C160.577 44.468 160.649 44.4687 160.61 44.4708L160.82 48.4652C161.155 48.4476 161.963 48.3812 162.616 47.7492C163.319 47.0692 163.365 46.2142 163.365 45.844H159.365ZM160.715 44.468C160.228 44.468 158.735 44.4936 157.219 44.4431L157.086 48.4409C158.691 48.4944 160.317 48.468 160.715 48.468V44.468ZM155.429 47.456C155.624 47.7873 155.827 48.2818 155.872 48.492L159.786 47.668C159.622 46.8902 159.202 45.9807 158.877 45.428L155.429 47.456ZM157.829 50.08C158.901 50.08 159.836 50.074 160.613 50.0277C161.366 49.9828 162.136 49.8932 162.814 49.6529L161.476 45.8831C161.347 45.9288 161.038 45.9952 160.375 46.0348C159.735 46.073 158.915 46.08 157.829 46.08V50.08ZM162.833 49.6458C163.437 49.4245 164.179 49.0331 164.696 48.2222C165.182 47.4599 165.289 46.6029 165.289 45.844H161.289C161.289 46.0484 161.273 46.1508 161.265 46.1861C161.259 46.2141 161.267 46.16 161.323 46.0723C161.35 46.0298 161.382 45.9888 161.418 45.9521C161.454 45.9158 161.486 45.8905 161.508 45.8747C161.549 45.8463 161.548 45.8564 161.456 45.8902L162.833 49.6458ZM165.289 45.844V44.05H161.289V45.844H165.289ZM163.289 46.05H169.529V42.05H163.289V46.05ZM167.529 44.05V45.22H171.529V44.05H167.529ZM169.529 47.22H171.453V43.22H169.529V47.22ZM173.453 45.22V40.618H169.453V45.22H173.453ZM171.453 42.618H174.131V38.618H171.453V42.618ZM176.131 40.618V39.084H172.131V40.618H176.131ZM177.719 36.354L177.086 38.2514L179.023 38.8969L179.629 36.9476L177.719 36.354ZM178.837 29.412L180.834 29.5144L180.929 27.6622L179.089 27.428L178.837 29.412ZM177.407 29.23L177.659 27.246L175.598 26.9837L175.415 29.0535L177.407 29.23ZM176.237 35.86L174.337 35.2361L173.715 37.1277L175.604 37.7574L176.237 35.86ZM179.409 47.976H177.409V49.976H179.409V47.976ZM181.203 47.976V49.976H183.203V47.976H181.203ZM181.203 24.238H183.203V22.238H181.203V24.238ZM179.409 24.238V22.238H177.409V24.238H179.409ZM181.411 28.554L180.655 26.7023L178.742 27.4832L179.585 29.3699L181.411 28.554ZM182.763 32.376L180.806 32.788L181.34 35.3237L183.657 34.1649L182.763 32.376ZM184.115 31.7L185.009 33.4889L186.444 32.7714L186.055 31.2149L184.115 31.7ZM182.685 28.034L184.482 27.1556L183.66 25.4757L181.929 26.1823L182.685 28.034ZM187.001 42.49H185.001V44.49H187.001V42.49ZM187.001 40.514V38.514H185.001V40.514H187.001ZM196.361 40.514H198.361V38.514H196.361V40.514ZM196.361 42.49V44.49H198.361V42.49H196.361ZM196.361 37.108H198.361V35.108H196.361V37.108ZM196.361 39.058V41.058H198.361V39.058H196.361ZM187.001 39.058H185.001V41.058H187.001V39.058ZM187.001 37.108V35.108H185.001V37.108H187.001ZM198.207 35.6H200.207V33.6H198.207V35.6ZM185.181 35.6V33.6H183.181V35.6H185.181ZM185.181 47.976H183.181V49.976H185.181V47.976ZM187.001 47.976V49.976H189.001V47.976H187.001ZM187.001 43.92V41.92H185.001V43.92H187.001ZM196.361 43.92H198.361V41.92H196.361V43.92ZM195.867 46.234V44.234H195.784L195.701 44.2409L195.867 46.234ZM193.007 46.208L193.087 44.2096L189.785 44.0775L191.199 47.0642L193.007 46.208ZM193.553 47.872L191.6 48.3059L191.943 49.8495L193.525 49.8718L193.553 47.872ZM197.271 47.586L198.002 49.4475L197.271 47.586ZM192.643 32.636H190.643V34.636H192.643V32.636ZM192.643 30.816V28.816H190.643V30.816H192.643ZM198.831 30.816V32.816H200.831V30.816H198.831ZM198.831 29.412H200.831V27.412H198.831V29.412ZM192.643 29.412H190.643V31.412H192.643V29.412ZM192.643 27.748V25.748H190.643V27.748H192.643ZM199.481 27.748V29.748H201.481V27.748H199.481ZM199.481 26.266H201.481V24.266H199.481V26.266ZM192.643 26.266H190.643V28.266H192.643V26.266ZM192.643 24.238H194.643V22.238H192.643V24.238ZM190.745 24.238V22.238H188.745V24.238H190.745ZM190.745 26.266V28.266H192.745V26.266H190.745ZM184.115 26.266V24.266H182.115V26.266H184.115ZM184.115 27.748H182.115V29.748H184.115V27.748ZM190.745 27.748H192.745V25.748H190.745V27.748ZM190.745 29.412V31.412H192.745V29.412H190.745ZM184.739 29.412V27.412H182.739V29.412H184.739ZM184.739 30.816H182.739V32.816H184.739V30.816ZM190.745 30.816H192.745V28.816H190.745V30.816ZM190.745 32.636V34.636H192.745V32.636H190.745ZM183.335 32.636V30.636H181.335V32.636H183.335ZM183.335 34.118H181.335V36.118H183.335V34.118ZM200.209 34.118V36.118H202.209V34.118H200.209ZM200.209 32.636H202.209V30.636H200.209V32.636ZM179.629 36.9476C180.293 34.8104 180.725 31.6416 180.834 29.5144L176.839 29.3096C176.741 31.2384 176.341 34.0496 175.809 35.7604L179.629 36.9476ZM179.089 27.428L177.659 27.246L177.154 31.214L178.584 31.396L179.089 27.428ZM175.415 29.0535C175.236 31.0694 174.835 33.718 174.337 35.2361L178.137 36.4839C178.783 34.518 179.214 31.4986 179.399 29.4065L175.415 29.0535ZM175.604 37.7574L177.086 38.2514L178.351 34.4566L176.869 33.9626L175.604 37.7574ZM179.409 49.976H181.203V45.976H179.409V49.976ZM183.203 47.976V24.238H179.203V47.976H183.203ZM181.203 22.238H179.409V26.238H181.203V22.238ZM177.409 24.238V47.976H181.409V24.238H177.409ZM179.585 29.3699C180.111 30.5482 180.641 32.0079 180.806 32.788L184.72 31.964C184.468 30.7681 183.802 29.0038 183.237 27.7381L179.585 29.3699ZM183.657 34.1649L185.009 33.4889L183.22 29.9111L181.868 30.5871L183.657 34.1649ZM186.055 31.2149C185.773 30.0866 185.083 28.385 184.482 27.1556L180.888 28.9124C181.431 30.023 181.989 31.4414 182.175 32.1851L186.055 31.2149ZM181.929 26.1823L180.655 26.7023L182.167 30.4057L183.441 29.8857L181.929 26.1823ZM189.001 42.49V40.514H185.001V42.49H189.001ZM187.001 42.514H196.361V38.514H187.001V42.514ZM194.361 40.514V42.49H198.361V40.514H194.361ZM196.361 40.49H187.001V44.49H196.361V40.49ZM194.361 37.108V39.058H198.361V37.108H194.361ZM196.361 37.058H187.001V41.058H196.361V37.058ZM189.001 39.058V37.108H185.001V39.058H189.001ZM187.001 39.108H196.361V35.108H187.001V39.108ZM198.207 33.6H185.181V37.6H198.207V33.6ZM183.181 35.6V47.976H187.181V35.6H183.181ZM185.181 49.976H187.001V45.976H185.181V49.976ZM189.001 47.976V43.92H185.001V47.976H189.001ZM187.001 45.92H196.361V41.92H187.001V45.92ZM194.361 43.92V45.792H198.361V43.92H194.361ZM194.361 45.792C194.361 45.7653 194.361 45.6144 194.426 45.4079C194.499 45.1739 194.651 44.8819 194.933 44.6346C195.203 44.3983 195.477 44.3041 195.636 44.2665C195.715 44.2477 195.776 44.2403 195.811 44.2372C195.846 44.2339 195.866 44.234 195.867 44.234V48.234C196.113 48.234 196.9 48.229 197.567 47.6449C198.314 46.9917 198.361 46.1278 198.361 45.792H194.361ZM195.701 44.2409C195.708 44.2403 195.69 44.2418 195.636 44.2438C195.587 44.2455 195.521 44.2472 195.44 44.2485C195.277 44.251 195.066 44.2518 194.82 44.2503C194.328 44.2472 193.713 44.2346 193.087 44.2096L192.927 48.2064C194.218 48.258 195.582 48.2647 196.033 48.2271L195.701 44.2409ZM191.199 47.0642C191.347 47.3751 191.515 47.9203 191.6 48.3059L195.505 47.4381C195.383 46.8877 195.135 46.0289 194.814 45.3518L191.199 47.0642ZM193.525 49.8718C194.447 49.8848 195.265 49.8864 195.959 49.8419C196.639 49.7983 197.351 49.7035 198.002 49.4475L196.54 45.7245C196.463 45.7545 196.239 45.8157 195.703 45.8501C195.182 45.8836 194.505 45.8852 193.581 45.8722L193.525 49.8718ZM198.002 49.4475C198.706 49.1709 199.381 48.6892 199.797 47.8679C200.157 47.1545 200.207 46.3958 200.207 45.818H196.207C196.207 46.0022 196.197 46.1027 196.189 46.1496C196.182 46.1929 196.184 46.1487 196.227 46.0626C196.249 46.0186 196.28 45.9695 196.319 45.9198C196.358 45.87 196.4 45.8279 196.441 45.7941C196.521 45.727 196.571 45.712 196.54 45.7245L198.002 49.4475ZM200.207 45.818V35.6H196.207V45.818H200.207ZM194.643 32.636V30.816H190.643V32.636H194.643ZM192.643 32.816H198.831V28.816H192.643V32.816ZM200.831 30.816V29.412H196.831V30.816H200.831ZM198.831 27.412H192.643V31.412H198.831V27.412ZM194.643 29.412V27.748H190.643V29.412H194.643ZM192.643 29.748H199.481V25.748H192.643V29.748ZM201.481 27.748V26.266H197.481V27.748H201.481ZM199.481 24.266H192.643V28.266H199.481V24.266ZM194.643 26.266V24.238H190.643V26.266H194.643ZM192.643 22.238H190.745V26.238H192.643V22.238ZM188.745 24.238V26.266H192.745V24.238H188.745ZM190.745 24.266H184.115V28.266H190.745V24.266ZM182.115 26.266V27.748H186.115V26.266H182.115ZM184.115 29.748H190.745V25.748H184.115V29.748ZM188.745 27.748V29.412H192.745V27.748H188.745ZM190.745 27.412H184.739V31.412H190.745V27.412ZM182.739 29.412V30.816H186.739V29.412H182.739ZM184.739 32.816H190.745V28.816H184.739V32.816ZM188.745 30.816V32.636H192.745V30.816H188.745ZM190.745 30.636H183.335V34.636H190.745V30.636ZM181.335 32.636V34.118H185.335V32.636H181.335ZM183.335 36.118H200.209V32.118H183.335V36.118ZM202.209 34.118V32.636H198.209V34.118H202.209ZM200.209 30.636H192.643V34.636H200.209V30.636Z"
      fill="#F8C2C2"
      />
      <path
        d="M135.495 24.628V45.298C135.495 45.818 135.287 46 134.741 46C134.247 46.026 132.375 46.052 130.477 45.974C130.789 46.52 131.153 47.43 131.283 47.976C133.701 48.002 135.313 47.95 136.249 47.638C137.159 47.3 137.549 46.728 137.549 45.298V24.628H135.495ZM141.709 31.18C143.919 34.898 145.999 39.734 146.623 42.802L148.651 41.944C148.001 38.85 145.817 34.118 143.529 30.478L141.709 31.18ZM128.709 30.66C128.085 34.144 126.655 38.616 124.341 41.346C124.861 41.554 125.693 42.022 126.161 42.36C128.501 39.474 130.009 34.82 130.841 31.05L128.709 30.66ZM169.529 42.568H163.289V40.618H169.529V42.568ZM163.289 37.264H169.529V39.084H163.289V37.264ZM155.775 32.662V30.79H161.365V32.662H155.775ZM169.113 30.79V32.662H163.289V30.79H169.113ZM174.131 39.084H171.453V35.834H163.289V34.014H171.037V29.438H163.289V27.93H173.637V26.344H163.289V24.264H161.365V26.344H151.225V27.93H161.365V29.438H153.929V34.014H161.365V35.834H153.201V37.264H161.365V39.084H150.731V40.618H161.365V42.568H152.967V44.05H161.365V45.844C161.365 46.286 161.209 46.442 160.715 46.468C160.273 46.468 158.713 46.494 157.153 46.442C157.413 46.884 157.725 47.586 157.829 48.08C159.987 48.08 161.339 48.054 162.145 47.768C162.925 47.482 163.289 47.04 163.289 45.844V44.05H169.529V45.22H171.453V40.618H174.131V39.084ZM177.719 36.354C178.317 34.43 178.733 31.44 178.837 29.412L177.407 29.23C177.225 31.284 176.809 34.118 176.237 35.86L177.719 36.354ZM179.409 47.976H181.203V24.238H179.409V47.976ZM181.411 28.554C181.957 29.776 182.555 31.388 182.763 32.376L184.115 31.7C183.881 30.764 183.257 29.204 182.685 28.034L181.411 28.554ZM187.001 42.49V40.514H196.361V42.49H187.001ZM196.361 37.108V39.058H187.001V37.108H196.361ZM198.207 35.6H185.181V47.976H187.001V43.92H196.361V45.792C196.361 46.13 196.231 46.234 195.867 46.234C195.555 46.26 194.307 46.26 193.007 46.208C193.241 46.702 193.449 47.404 193.553 47.872C195.399 47.898 196.543 47.872 197.271 47.586C197.999 47.3 198.207 46.806 198.207 45.818V35.6ZM192.643 32.636V30.816H198.831V29.412H192.643V27.748H199.481V26.266H192.643V24.238H190.745V26.266H184.115V27.748H190.745V29.412H184.739V30.816H190.745V32.636H183.335V34.118H200.209V32.636H192.643Z"
        fill="white"
      />
      <defs>
        <linearGradient
          id="paint0_linear"
          x1="16.575"
          y1="139.006"
          x2="113.877"
          y2="284.065"
          gradientUnits="userSpaceOnUse"
        >
          <stop stop-color="#D90A9F" />
          <stop offset="1" stop-color="#B44E97" />
        </linearGradient>
      </defs>
    </svg>