<svg width="62" height="58" viewBox="0 0 62 58" fill="none" xmlns="http://www.w3.org/2000/svg">
<g filter="url(#filter0_d)">
<path d="M40.632 33.008C38.896 36.2 36.432 38.72 33.184 40.68C28.984 39.672 24.56 38.72 20.136 37.88C21.256 36.368 22.432 34.688 23.608 33.008H40.632ZM13.752 13.408H22.208V20.968H13.752V13.408ZM26.184 5.288H35.2V9.992H26.184V5.288ZM48.472 13.408V20.968H39.176V13.408H48.472ZM26.184 20.968V13.408H35.2V20.968H26.184ZM56.312 33.008V29.536H25.96C27.08 27.912 28.144 26.288 29.096 24.776L27.584 24.384H52.56V9.992H39.176V5.288H54.912V1.592H7.088V5.288H22.208V9.992H9.832V24.384H24.56C23.552 26.008 22.376 27.744 21.2 29.536H5.744V33.008H18.792C16.664 35.976 14.592 38.888 12.856 41.072L16.776 42.416L17.952 40.904C21.368 41.576 24.728 42.304 28.032 43.088C22.488 45.104 15.432 46.112 6.528 46.616C7.2 47.512 7.816 49.024 8.096 50.2C19.184 49.416 27.696 47.736 33.968 44.544C41.08 46.392 47.352 48.464 52.056 50.368L54.576 47.008C50.264 45.384 44.552 43.592 38.168 41.912C41.248 39.56 43.544 36.648 45.224 33.008H56.312Z" fill="white"/>
<path d="M40.632 33.008L41.5105 33.4858L42.3142 32.008H40.632V33.008ZM33.184 40.68L32.9506 41.6524L33.3495 41.7481L33.7007 41.5362L33.184 40.68ZM20.136 37.88L19.3324 37.2848L18.384 38.5652L19.9495 38.8624L20.136 37.88ZM23.608 33.008V32.008H23.0873L22.7888 32.4345L23.608 33.008ZM13.752 13.408V12.408H12.752V13.408H13.752ZM22.208 13.408H23.208V12.408H22.208V13.408ZM22.208 20.968V21.968H23.208V20.968H22.208ZM13.752 20.968H12.752V21.968H13.752V20.968ZM26.184 5.288V4.288H25.184V5.288H26.184ZM35.2 5.288H36.2V4.288H35.2V5.288ZM35.2 9.992V10.992H36.2V9.992H35.2ZM26.184 9.992H25.184V10.992H26.184V9.992ZM48.472 13.408H49.472V12.408H48.472V13.408ZM48.472 20.968V21.968H49.472V20.968H48.472ZM39.176 20.968H38.176V21.968H39.176V20.968ZM39.176 13.408V12.408H38.176V13.408H39.176ZM26.184 20.968H25.184V21.968H26.184V20.968ZM26.184 13.408V12.408H25.184V13.408H26.184ZM35.2 13.408H36.2V12.408H35.2V13.408ZM35.2 20.968V21.968H36.2V20.968H35.2ZM56.312 33.008V34.008H57.312V33.008H56.312ZM56.312 29.536H57.312V28.536H56.312V29.536ZM25.96 29.536L25.1368 28.9683L24.0556 30.536H25.96V29.536ZM29.096 24.776L29.9422 25.3088L30.671 24.1513L29.347 23.808L29.096 24.776ZM27.584 24.384V23.384L27.333 25.352L27.584 24.384ZM52.56 24.384V25.384H53.56V24.384H52.56ZM52.56 9.992H53.56V8.992H52.56V9.992ZM39.176 9.992H38.176V10.992H39.176V9.992ZM39.176 5.288V4.288H38.176V5.288H39.176ZM54.912 5.288V6.288H55.912V5.288H54.912ZM54.912 1.592H55.912V0.591998H54.912V1.592ZM7.088 1.592V0.591998H6.088V1.592H7.088ZM7.088 5.288H6.088V6.288H7.088V5.288ZM22.208 5.288H23.208V4.288H22.208V5.288ZM22.208 9.992V10.992H23.208V9.992H22.208ZM9.832 9.992V8.992H8.832V9.992H9.832ZM9.832 24.384H8.832V25.384H9.832V24.384ZM24.56 24.384L25.4096 24.9114L26.3577 23.384H24.56V24.384ZM21.2 29.536V30.536H21.7399L22.036 30.0847L21.2 29.536ZM5.744 29.536V28.536H4.744V29.536H5.744ZM5.744 33.008H4.744V34.008H5.744V33.008ZM18.792 33.008L19.6047 33.5907L20.7395 32.008H18.792V33.008ZM12.856 41.072L12.0732 40.4498L11.1918 41.5586L12.5317 42.0179L12.856 41.072ZM16.776 42.416L16.4517 43.3619L17.127 43.5935L17.5654 43.0299L16.776 42.416ZM17.952 40.904L18.145 39.9228L17.5407 39.8039L17.1626 40.2901L17.952 40.904ZM28.032 43.088L28.3737 44.0278L31.513 42.8862L28.2629 42.115L28.032 43.088ZM6.528 46.616L6.47149 45.6176L4.6083 45.7231L5.728 47.216L6.528 46.616ZM8.096 50.2L7.12319 50.4316L7.3198 51.2574L8.16653 51.1975L8.096 50.2ZM33.968 44.544L34.2195 43.5761L33.8524 43.4808L33.5144 43.6528L33.968 44.544ZM52.056 50.368L51.6808 51.2949L52.3942 51.5837L52.856 50.968L52.056 50.368ZM54.576 47.008L55.376 47.608L56.1756 46.5419L54.9285 46.0722L54.576 47.008ZM38.168 41.912L37.5611 41.1172L35.9355 42.3586L37.9135 42.8791L38.168 41.912ZM45.224 33.008V32.008H44.5842L44.316 32.5889L45.224 33.008ZM39.7535 32.5302C38.1079 35.5561 35.7735 37.9494 32.6673 39.8238L33.7007 41.5362C37.0905 39.4906 39.6841 36.8439 41.5105 33.4858L39.7535 32.5302ZM33.4174 39.7076C29.2018 38.6959 24.7621 37.7405 20.3225 36.8976L19.9495 38.8624C24.3579 39.6995 28.7662 40.6481 32.9506 41.6524L33.4174 39.7076ZM20.9396 38.4752C22.069 36.9504 23.253 35.2589 24.4272 33.5815L22.7888 32.4345C21.611 34.1171 20.443 35.7856 19.3324 37.2848L20.9396 38.4752ZM23.608 34.008H40.632V32.008H23.608V34.008ZM13.752 14.408H22.208V12.408H13.752V14.408ZM21.208 13.408V20.968H23.208V13.408H21.208ZM22.208 19.968H13.752V21.968H22.208V19.968ZM14.752 20.968V13.408H12.752V20.968H14.752ZM26.184 6.288H35.2V4.288H26.184V6.288ZM34.2 5.288V9.992H36.2V5.288H34.2ZM35.2 8.992H26.184V10.992H35.2V8.992ZM27.184 9.992V5.288H25.184V9.992H27.184ZM47.472 13.408V20.968H49.472V13.408H47.472ZM48.472 19.968H39.176V21.968H48.472V19.968ZM40.176 20.968V13.408H38.176V20.968H40.176ZM39.176 14.408H48.472V12.408H39.176V14.408ZM27.184 20.968V13.408H25.184V20.968H27.184ZM26.184 14.408H35.2V12.408H26.184V14.408ZM34.2 13.408V20.968H36.2V13.408H34.2ZM35.2 19.968H26.184V21.968H35.2V19.968ZM57.312 33.008V29.536H55.312V33.008H57.312ZM56.312 28.536H25.96V30.536H56.312V28.536ZM26.7832 30.1037C27.9118 28.4673 28.9835 26.8315 29.9422 25.3088L28.2498 24.2432C27.3045 25.7445 26.2482 27.3567 25.1368 28.9683L26.7832 30.1037ZM29.347 23.808L27.835 23.416L27.333 25.352L28.845 25.744L29.347 23.808ZM27.584 25.384H52.56V23.384H27.584V25.384ZM53.56 24.384V9.992H51.56V24.384H53.56ZM52.56 8.992H39.176V10.992H52.56V8.992ZM40.176 9.992V5.288H38.176V9.992H40.176ZM39.176 6.288H54.912V4.288H39.176V6.288ZM55.912 5.288V1.592H53.912V5.288H55.912ZM54.912 0.591998H7.088V2.592H54.912V0.591998ZM6.088 1.592V5.288H8.088V1.592H6.088ZM7.088 6.288H22.208V4.288H7.088V6.288ZM21.208 5.288V9.992H23.208V5.288H21.208ZM22.208 8.992H9.832V10.992H22.208V8.992ZM8.832 9.992V24.384H10.832V9.992H8.832ZM9.832 25.384H24.56V23.384H9.832V25.384ZM23.7104 23.8566C22.7112 25.4664 21.5516 27.1776 20.364 28.9873L22.036 30.0847C23.2004 28.3104 24.3928 26.5496 25.4096 24.9114L23.7104 23.8566ZM21.2 28.536H5.744V30.536H21.2V28.536ZM4.744 29.536V33.008H6.744V29.536H4.744ZM5.744 34.008H18.792V32.008H5.744V34.008ZM17.9793 32.4253C15.8438 35.4037 13.7898 38.2902 12.0732 40.4498L13.6388 41.6942C15.3942 39.4858 17.4842 36.5483 19.6047 33.5907L17.9793 32.4253ZM12.5317 42.0179L16.4517 43.3619L17.1003 41.4701L13.1803 40.1261L12.5317 42.0179ZM17.5654 43.0299L18.7414 41.5179L17.1626 40.2901L15.9866 41.8021L17.5654 43.0299ZM17.759 41.8852C21.1626 42.5548 24.51 43.28 27.8011 44.061L28.2629 42.115C24.946 41.328 21.5734 40.5972 18.145 39.9228L17.759 41.8852ZM27.6903 42.1482C22.2864 44.1133 15.3481 45.1151 6.47149 45.6176L6.58451 47.6144C15.5159 47.1089 22.6896 46.0947 28.3737 44.0278L27.6903 42.1482ZM5.728 47.216C6.29244 47.9686 6.86344 49.3407 7.12319 50.4316L9.06881 49.9684C8.76856 48.7073 8.10756 47.0554 7.328 46.016L5.728 47.216ZM8.16653 51.1975C19.2938 50.4107 27.9679 48.7197 34.4216 45.4352L33.5144 43.6528C27.4241 46.7523 19.0742 48.4213 8.02547 49.2025L8.16653 51.1975ZM33.7165 45.5119C40.7945 47.351 47.0242 49.4101 51.6808 51.2949L52.4312 49.4411C47.6798 47.5179 41.3655 45.433 34.2195 43.5761L33.7165 45.5119ZM52.856 50.968L55.376 47.608L53.776 46.408L51.256 49.768L52.856 50.968ZM54.9285 46.0722C50.5763 44.4331 44.8302 42.6312 38.4225 40.9449L37.9135 42.8791C44.2738 44.5528 49.9517 46.3349 54.2235 47.9438L54.9285 46.0722ZM38.7749 42.7068C41.9908 40.251 44.3872 37.2074 46.132 33.4271L44.316 32.5889C42.7008 36.0886 40.5052 38.869 37.5611 41.1172L38.7749 42.7068ZM45.224 34.008H56.312V32.008H45.224V34.008Z" fill="#F8C2C2"/>
</g>
<defs>
<filter id="filter0_d" x="0.608307" y="0.591995" width="60.7037" height="58.9917" filterUnits="userSpaceOnUse" color-interpolation-filters="sRGB">
<feFlood flood-opacity="0" result="BackgroundImageFix"/>
<feColorMatrix in="SourceAlpha" type="matrix" values="0 0 0 0 0 0 0 0 0 0 0 0 0 0 0 0 0 0 127 0"/>
<feOffset dy="4"/>
<feGaussianBlur stdDeviation="2"/>
<feColorMatrix type="matrix" values="0 0 0 0 0 0 0 0 0 0 0 0 0 0 0 0 0 0 0.25 0"/>
<feBlend mode="normal" in2="BackgroundImageFix" result="effect1_dropShadow"/>
<feBlend mode="normal" in="SourceGraphic" in2="effect1_dropShadow" result="shape"/>
</filter>
</defs>
</svg>
